<?xml version="1.0" encoding="UTF-8" standalone="no"?>
<svg
   version="1.1"
   x="0px"
   y="0px"
   viewBox="0 0 61.541206 80.243545"
   xml:space="preserve"
   id="svg10"
   sodipodi:docname="devfullstacksvg.svg"
   width="61.541206"
   height="80.243546"
   inkscape:version="1.3 (0e150ed6c4, 2023-07-21)"
   xmlns:inkscape="http://www.inkscape.org/namespaces/inkscape"
   xmlns:sodipodi="http://sodipodi.sourceforge.net/DTD/sodipodi-0.dtd"
   xmlns="http://www.w3.org/2000/svg"
   xmlns:svg="http://www.w3.org/2000/svg"><defs
     id="defs10"><rect
       x="85.125"
       y="40.625"
       width="16.25"
       height="31"
       id="rect10" /></defs><sodipodi:namedview
     id="namedview10"
     pagecolor="#ffffff"
     bordercolor="#000000"
     borderopacity="0.25"
     inkscape:showpageshadow="2"
     inkscape:pageopacity="0.0"
     inkscape:pagecheckerboard="0"
     inkscape:deskcolor="#d1d1d1"
     inkscape:zoom="11.313708"
     inkscape:cx="29.300737"
     inkscape:cy="30.405592"
     inkscape:window-width="1350"
     inkscape:window-height="1032"
     inkscape:window-x="2355"
     inkscape:window-y="172"
     inkscape:window-maximized="0"
     inkscape:current-layer="svg10" /><g
     id="g9"><g
       id="g14"><path
         d="m 36.581969,63.477676 c 0.195312,0.195313 0.451172,0.292969 0.707031,0.292969 0.255859,0 0.511719,-0.09766 0.707031,-0.292969 l 4,-4 c 0.390625,-0.390625 0.390625,-1.023437 0,-1.414062 l -4,-4 c -0.390625,-0.390625 -1.023437,-0.390625 -1.414062,0 -0.390625,0.390625 -0.390625,1.023437 0,1.414062 l 3.292968,3.292969 -3.292968,3.292969 c -0.390625,0.390625 -0.390625,1.023437 0,1.414062 z"
         id="path2-7"
         style="fill:#00ff00" /><path
         d="M 22.437031,54.063614 C 22.241719,53.868301 21.985859,53.770645 21.73,53.770645 c -0.255859,0 -0.511719,0.09766 -0.707031,0.292969 l -4,4 c -0.390625,0.390625 -0.390625,1.023437 0,1.414062 l 4,4 c 0.390625,0.390625 1.023437,0.390625 1.414062,0 0.390625,-0.390625 0.390625,-1.023437 0,-1.414062 l -3.292968,-3.292969 3.292968,-3.292969 c 0.390625,-0.390625 0.390625,-1.023437 0,-1.414062 z"
         id="path2-7-5"
         style="fill:#00ff00" /><path
         d="m 30.486474,63.770645 c 0.367188,0 0.720215,-0.202148 0.895508,-0.552734 l 4,-8 c 0.24707,-0.49414 0.04687,-1.094727 -0.447265,-1.341797 -0.495606,-0.247559 -1.094727,-0.0459 -1.341797,0.447265 l -4,8 c -0.247071,0.494141 -0.04687,1.094727 0.447265,1.341797 0.143555,0.07178 0.296387,0.105469 0.446289,0.105469 z"
         id="path3"
         style="fill:#00ff00"
         sodipodi:nodetypes="sssccsss" /><circle
         style="fill:#00ff00;stroke-width:0.741883"
         id="path2"
         cx="27.597511"
         cy="62.682255"
         r="1.0883883" /><circle
         style="fill:#00ff00;stroke-width:0.741883"
         id="path2-5"
         cx="24.619562"
         cy="62.682255"
         r="1.0883883" /></g></g><g
     id="g13"
     transform="translate(-3.125,0.5)"><path
       d="m 57.541206,44 h -43 c -0.549988,0 -1,-0.450012 -1,-1 V 10 h 46 v 6 c 0,0.549988 0.450012,1 1,1 0.549988,0 1,-0.450012 1,-1 V 3 c 0,-1.650024 -1.349975,-3 -3,-3 h -44 c -1.650024,0 -3,1.349976 -3,3 v 40 c 0,1.649964 1.349976,3 3,3 h 43 c 0.549988,0 1,-0.450012 1,-1 0,-0.549988 -0.450012,-1 -1,-1 z M 55.621223,4.619995 C 55.671213,4.5 55.741218,4.390015 55.831184,4.289978 c 0.05005,-0.03998 0.100037,-0.08002 0.150025,-0.119995 0.06,-0.03998 0.119995,-0.07001 0.179992,-0.09003 0.06,-0.02997 0.119995,-0.04999 0.179993,-0.06 0.200012,-0.03998 0.400024,-0.01996 0.580017,0.06 0.130005,0.05005 0.229981,0.120056 0.330017,0.210022 0.08997,0.100037 0.159973,0.210022 0.209961,0.330017 0.04999,0.119995 0.08002,0.25 0.08002,0.380005 0,0.26001 -0.109985,0.519959 -0.289978,0.709961 C 57.151195,5.799988 57.051219,5.869992 56.921214,5.91998 56.801219,5.96997 56.671214,6 56.541209,6 56.471199,6 56.411204,5.98999 56.341197,5.97998 c -0.06,-0.01001 -0.119995,-0.02997 -0.179993,-0.06 -0.06,-0.02002 -0.119995,-0.04999 -0.179992,-0.09003 -0.04999,-0.02997 -0.09998,-0.07996 -0.150025,-0.119995 -0.08997,-0.09998 -0.159973,-0.209961 -0.209961,-0.329956 -0.04999,-0.119995 -0.08002,-0.25 -0.08002,-0.380005 0,-0.130005 0.03003,-0.26001 0.08002,-0.380005 z m -36,0 C 19.671213,4.5 19.741218,4.390015 19.831184,4.289978 c 0.05005,-0.03998 0.100037,-0.08002 0.150025,-0.119995 0.06,-0.03998 0.119995,-0.07001 0.179992,-0.09003 0.06,-0.02997 0.119995,-0.04999 0.179993,-0.06 0.200012,-0.03998 0.400024,-0.01996 0.580017,0.06 0.130005,0.05005 0.229981,0.120056 0.330017,0.210022 0.08997,0.100037 0.159973,0.210022 0.209961,0.330017 0.06,0.119995 0.08002,0.25 0.08002,0.380005 0,0.26001 -0.109985,0.519959 -0.289978,0.709961 C 21.151195,5.799988 21.051219,5.869992 20.921214,5.91998 20.801219,5.96997 20.671214,6 20.541209,6 20.471199,6 20.411204,5.98999 20.341197,5.97998 c -0.06,-0.01001 -0.119995,-0.02997 -0.179993,-0.06 -0.06,-0.02002 -0.119995,-0.04999 -0.179992,-0.09003 -0.04999,-0.02997 -0.09998,-0.07996 -0.150025,-0.119995 -0.08997,-0.09998 -0.159973,-0.209961 -0.209961,-0.329956 -0.04999,-0.119995 -0.08002,-0.25 -0.08002,-0.380005 0,-0.130005 0.03003,-0.26001 0.08002,-0.380005 z m -4,0 C 15.671213,4.5 15.741218,4.390015 15.831184,4.289978 c 0.100037,-0.08997 0.210022,-0.159973 0.330017,-0.210022 0.239991,-0.09998 0.52002,-0.09998 0.76001,0 0.130005,0.05005 0.229981,0.120056 0.330017,0.210022 0.08997,0.100037 0.159973,0.210022 0.209961,0.330017 0.06,0.119995 0.08002,0.25 0.08002,0.380005 0,0.130005 -0.02002,0.26001 -0.08002,0.380005 -0.04999,0.119995 -0.119995,0.229981 -0.209961,0.329956 -0.100036,0.09003 -0.200012,0.160034 -0.330017,0.210022 -0.119995,0.04999 -0.25,0.08002 -0.380005,0.08002 -0.130005,0 -0.26001,-0.03003 -0.380005,-0.08002 C 16.041206,5.869993 15.931221,5.799988 15.831184,5.709961 15.741214,5.609981 15.671211,5.5 15.621223,5.380005 15.571233,5.26001 15.541203,5.130005 15.541203,5 c 0,-0.130005 0.03003,-0.26001 0.08002,-0.380005 z"
       id="path4"
       sodipodi:nodetypes="sssccsssssssssssscccccccssccsccccssccccccccccsccsccccssccscccccscccsscsss" /><path
       d="m 54.919557,44 c -0.552246,0 -1,0.447266 -1,1 0,0.552734 0.447754,1 1,1 h 3.17627 c 0.552246,0 1,-0.447266 1,-1 0,-0.552734 -0.447754,-1 -1,-1 z"
       id="path8" /><path
       d="m 59.834406,16.697199 c 0.389387,0.391604 1.023372,0.390842 1.414214,0 0.390842,-0.390842 0.389387,-1.02261 0,-1.414214 l -3.881146,-3.903244 c -0.389387,-0.391603 -1.023372,-0.390842 -1.414214,0 -0.390842,0.390842 -0.389387,1.022611 0,1.414214 z"
       id="path8-6"
       sodipodi:nodetypes="sssssss" /><path
       d="m 57.389027,45.706583 c 0.389387,0.391604 1.023372,0.390842 1.414214,0 0.390842,-0.390842 0.389387,-1.02261 0,-1.414214 l -3.881146,-3.903244 c -0.389387,-0.391603 -1.023372,-0.390842 -1.414214,0 -0.390842,0.390842 -0.389387,1.022611 0,1.414214 z"
       id="path8-6-1"
       sodipodi:nodetypes="sssssss" /></g><g
     id="g11"
     transform="matrix(0.79874604,0,0,0.79874604,10.369726,4.7542266)"><path
       d="M 30.562116,9.697417 H 5.5621156 c -1.650024,0 -3,1.349976 -3,3 v 21 c 0,1.649963 1.349976,3 3,3 h 15.0000004 10 c 1.650024,0 3,-1.350037 3,-3 v -21 c 0,-1.650024 -1.349976,-3 -3,-3 z"
       id="path5"
       sodipodi:nodetypes="ssssscssss" /><g
       id="g10"
       transform="translate(35.515988,29.236783)"
       style="fill:#000000;fill-opacity:0.45098"><g
         stroke="none"
         stroke-width="1"
         fill="none"
         fill-rule="evenodd"
         id="g2"
         style="fill:#ffffff;fill-opacity:1"
         transform="translate(-27.453874,-16.03936)"><g
           transform="translate(-20,-260)"
           fill="#000000"
           fill-rule="nonzero"
           id="g1"
           style="fill:#ffffff;fill-opacity:1"><path
             d="m 39.81164,273.41568 0.06252,0.0987 c 0.249055,0.4483 0.116863,1.00525 -0.289836,1.29728 l -0.09868,0.0625 -9,5 c -0.26427,0.14681 -0.578472,0.16517 -0.855225,0.055 l -0.116061,-0.055 -9,-5 c -0.482784,-0.26822 -0.656727,-0.87702 -0.388514,-1.3598 0.249055,-0.4483 0.791782,-0.63031 1.254587,-0.43927 l 0.105213,0.0507 8.513357,4.72916 8.515357,-4.72916 c 0.448299,-0.24905 1.005258,-0.11686 1.297283,0.28984 z m 0,-4 0.06252,0.0987 c 0.249055,0.4483 0.116863,1.00525 -0.289836,1.29728 l -0.09868,0.0625 -9,5 c -0.26427,0.14681 -0.578472,0.16517 -0.855225,0.055 l -0.116061,-0.055 -9,-5 c -0.482784,-0.26822 -0.656727,-0.87702 -0.388514,-1.3598 0.249055,-0.4483 0.791782,-0.63031 1.254587,-0.43927 l 0.105213,0.0507 8.513357,4.72916 8.515357,-4.72916 c 0.448299,-0.24905 1.005258,-0.11686 1.297283,0.28984 z m -10.297283,-9.28984 c 0.302023,-0.16779 0.669263,-0.16779 0.971286,0 v 0 l 9,5 c 0.685809,0.38101 0.685809,1.36731 0,1.74832 v 0 l -9,5 c -0.302023,0.16779 -0.669263,0.16779 -0.971286,0 v 0 l -9,-5 c -0.685809,-0.38101 -0.685809,-1.36731 0,-1.74832 v 0 z M 30,262.144 23.059,266 29.999,269.855 36.94,266 Z"
             id="path1-4"
             style="fill:#ffffff;fill-opacity:1" /></g></g><text
         x="0"
         y="35"
         fill="#000000"
         font-size="5px"
         font-weight="bold"
         font-family="'Helvetica Neue', Helvetica, Arial-Unicode, Arial, Sans-serif"
         id="text2"
         style="fill:#000000;fill-opacity:0.45098" /><text
         x="0"
         y="40"
         fill="#000000"
         font-size="5px"
         font-weight="bold"
         font-family="'Helvetica Neue', Helvetica, Arial-Unicode, Arial, Sans-serif"
         id="text3"
         style="fill:#000000;fill-opacity:0.45098" /></g></g><path
     d="m 31.565048,47.211494 h -18 c -0.552246,0 -1,0.447266 -1,1 0,0.552734 0.447754,1 1,1 h 18 c 0.552246,0 1,-0.447266 1,-1 0,-0.552734 -0.447754,-1 -1,-1 z"
     id="path6" /><path
     d="M 36.177333,36.5 H 24.338954 c -0.552246,0 -1,0.447266 -1,1 0,0.552734 0.447754,1 1,1 h 11.838379 c 0.552246,0 1,-0.447266 1,-1 0,-0.552734 -0.447754,-1 -1,-1 z"
     id="path7"
     sodipodi:nodetypes="sssssss" /><path
     d="m 13.416206,36.5 c -0.552246,0 -1,0.447266 -1,1 0,0.552734 0.447754,1 1,1 h 7.17627 c 0.552246,0 1,-0.447266 1,-1 0,-0.552734 -0.447754,-1 -1,-1 z"
     id="path8-7"
     sodipodi:nodetypes="sssssss" /><g
     id="g16"
     transform="translate(-10.583794,-5.4999997)"><path
       d="m 46.761127,46 h -3.838379 c -0.552246,0 -1,0.447266 -1,1 0,0.552734 0.447754,1 1,1 h 3.838379 c 0.552246,0 1,-0.447266 1,-1 0,-0.552734 -0.447754,-1 -1,-1 z"
       id="path7-4"
       sodipodi:nodetypes="sssssss" /><path
       d="m 24,46 c -0.552246,0 -1,0.447266 -1,1 0,0.552734 0.447754,1 1,1 h 15.17627 c 0.552246,0 1,-0.447266 1,-1 0,-0.552734 -0.447754,-1 -1,-1 z"
       id="path8-7-0"
       sodipodi:nodetypes="sssssss" /></g><text
     xml:space="preserve"
     style="font-style:normal;font-variant:normal;font-weight:bold;font-stretch:normal;font-size:24px;font-family:Monospace;-inkscape-font-specification:'Monospace Bold';letter-spacing:-3px;word-spacing:-0.04px;white-space:pre;inline-size:77.6445;display:inline;fill:#00ff00"
     x="16.25"
     y="68.125"
     id="text9"
     transform="translate(21.75,-60)"><tspan
       x="16.25"
       y="68.125"
       id="tspan4"><tspan
         style="letter-spacing:-3.04px"
         id="tspan1">&lt;../</tspan><tspan
         dx="8.9599991"
         style="word-spacing:-9px"
         id="tspan2"> </tspan><tspan
         dx="-9"
         id="tspan3">&gt;</tspan></tspan></text><text
     xml:space="preserve"
     id="text10"
     style="font-style:normal;font-variant:normal;font-weight:bold;font-stretch:normal;font-size:24px;font-family:Monospace;-inkscape-font-specification:'Monospace Bold';white-space:pre;shape-inside:url(#rect10);display:inline;fill:#00ff00" /></svg>
