<?xml version="1.0" encoding="UTF-8" standalone="no"?>
<!-- Created with Inkscape (http://www.inkscape.org/) -->

<svg
   width="25mm"
   height="10mm"
   viewBox="0 0 25 10"
   version="1.1"
   id="svg1"
   inkscape:version="1.3 (0e150ed6c4, 2023-07-21)"
   sodipodi:docname="codesysvg.svg"
   xmlns:inkscape="http://www.inkscape.org/namespaces/inkscape"
   xmlns:sodipodi="http://sodipodi.sourceforge.net/DTD/sodipodi-0.dtd"
   xmlns="http://www.w3.org/2000/svg"
   xmlns:svg="http://www.w3.org/2000/svg">
  <sodipodi:namedview
     id="namedview1"
     pagecolor="#ffffff"
     bordercolor="#000000"
     borderopacity="0.25"
     inkscape:showpageshadow="2"
     inkscape:pageopacity="0.0"
     inkscape:pagecheckerboard="0"
     inkscape:deskcolor="#d1d1d1"
     inkscape:document-units="mm"
     inkscape:zoom="5.6568544"
     inkscape:cx="57.982755"
     inkscape:cy="31.908193"
     inkscape:window-width="1920"
     inkscape:window-height="1009"
     inkscape:window-x="1912"
     inkscape:window-y="-8"
     inkscape:window-maximized="1"
     inkscape:current-layer="layer1" />
  <defs
     id="defs1" />
  <g
     inkscape:label="Layer 1"
     inkscape:groupmode="layer"
     id="layer1">
    <path
       d="m 19.417798,9.7070231 c 0.191126,0.1953928 0.441294,0.2929002 0.691571,0.2929002 0.250279,0 0.50052,-0.097507 0.691575,-0.2929002 l 3.912505,-3.9998303 c 0.382068,-0.3905986 0.382068,-1.02338 0,-1.4140171 L 20.800944,0.29334565 c -0.382109,-0.39059858 -1.001075,-0.39059858 -1.383146,0 -0.382072,0.39059856 -0.382072,1.02341865 0,1.41401715 l 3.220931,3.2928228 -3.220931,3.2928588 c -0.382072,0.3905988 -0.382072,1.0233793 0,1.4139787 z"
       id="path2-7"
       style="fill:#00ff00;stroke-width:0.988982" />
    <path
       d="M 5.5822033,0.29334565 C 5.3910752,0.0979528 5.1409083,4.4421529e-4 4.8906675,4.4421529e-4 4.6403897,4.4421529e-4 4.3901117,0.0979528 4.1990946,0.29334565 L 0.28655338,4.2931757 c -0.38207117,0.3906371 -0.38207117,1.0234185 0,1.4140171 L 4.1990946,9.7070231 c 0.3820712,0.3906349 1.0010374,0.3906349 1.3831087,0 0.3821081,-0.3905994 0.3821081,-1.0233799 0,-1.4139787 L 2.3612716,5.0001856 5.5822033,1.7073628 c 0.3821081,-0.3905985 0.3821081,-1.02341859 0,-1.41401715 z"
       id="path2-7-5"
       style="fill:#00ff00;stroke-width:0.988982" />
    <path
       d="m 13.455604,10 c 0.358966,0 0.704474,-0.2021976 0.875933,-0.552696 l 3.912504,-7.9996985 c 0.241777,-0.49411547 0.04584,-1.09469699 -0.437486,-1.34175414 -0.484769,-0.24755 -1.070761,-0.04573143 -1.312424,0.44725144 l -3.912539,7.9996975 c -0.241776,0.4941166 -0.04584,1.0946599 0.437487,1.3417157 0.140481,0.071808 0.289834,0.1054466 0.436525,0.1054466 z"
       id="path3"
       style="fill:#00ff00;stroke-width:0.988982"
       sodipodi:nodetypes="sssccsss" />
    <ellipse
       style="fill:#00ff00;stroke-width:0.73372"
       id="path2"
       cx="10.629831"
       cy="8.9116354"
       rx="1.0645846"
       ry="1.0883455" />
    <ellipse
       style="fill:#00ff00;stroke-width:0.73372"
       id="path2-5"
       cx="7.7170029"
       cy="8.9116354"
       rx="1.0645846"
       ry="1.0883455" />
  </g>
</svg>
