<?xml version="1.0" encoding="UTF-8" standalone="no"?>
<!-- Created with Inkscape (http://www.inkscape.org/) -->

<svg
   width="175mm"
   height="70mm"
   viewBox="0 0 175 70"
   version="1.1"
   id="svg1"
   inkscape:version="1.3 (0e150ed6c4, 2023-07-21)"
   sodipodi:docname="codesysvg.svg"
   xmlns:inkscape="http://www.inkscape.org/namespaces/inkscape"
   xmlns:sodipodi="http://sodipodi.sourceforge.net/DTD/sodipodi-0.dtd"
   xmlns="http://www.w3.org/2000/svg"
   xmlns:svg="http://www.w3.org/2000/svg">
  <sodipodi:namedview
     id="namedview1"
     pagecolor="#ffffff"
     bordercolor="#000000"
     borderopacity="0.25"
     inkscape:showpageshadow="2"
     inkscape:pageopacity="0.0"
     inkscape:pagecheckerboard="0"
     inkscape:deskcolor="#d1d1d1"
     inkscape:document-units="mm"
     inkscape:zoom="0.72426347"
     inkscape:cx="57.29959"
     inkscape:cy="167.75663"
     inkscape:window-width="1920"
     inkscape:window-height="1009"
     inkscape:window-x="1912"
     inkscape:window-y="-8"
     inkscape:window-maximized="1"
     inkscape:current-layer="layer1" />
  <defs
     id="defs1" />
  <g
     inkscape:label="Layer 1"
     inkscape:groupmode="layer"
     id="layer1">
    <path
       d="m 135.92457,67.949159 c 1.33789,1.36775 3.08906,2.05031 4.841,2.05031 1.75195,0 3.50364,-0.68256 4.84102,-2.05031 l 27.38753,-27.99881 c 2.67449,-2.73419 2.67449,-7.16366 0,-9.89812 L 145.60659,2.0534194 c -2.67476,-2.73419 -7.00752,-2.73419 -9.68202,0 -2.6745,2.73419 -2.6745,7.16393 0,9.8981196 l 22.54652,23.04976 -22.54652,23.05001 c -2.6745,2.73419 -2.6745,7.16366 0,9.89785 z"
       id="path2-7"
       style="fill:#00ff00;stroke-width:6.92288" />
    <path
       d="m 39.07542,2.0534194 c -1.337897,-1.36775 -3.089065,-2.05031 -4.840751,-2.05031 -1.751944,0 -3.50389,0.68256 -4.841009,2.05031 L 2.0058735,30.052229 c -2.67449801,2.73446 -2.67449801,7.16393 0,9.89812 L 29.39366,67.949159 c 2.674498,2.73445 7.007261,2.73445 9.68176,0 2.674756,-2.73419 2.674756,-7.16366 0,-9.89785 L 16.5289,35.001299 39.07542,11.951539 c 2.674756,-2.7341896 2.674756,-7.1639296 0,-9.8981196 z"
       id="path2-7-5"
       style="fill:#00ff00;stroke-width:6.92288" />
    <path
       d="m 94.18922,69.999999 c 2.51276,0 4.931321,-1.41538 6.13153,-3.86887 l 27.38753,-55.99789 c 1.69243,-3.4588096 0.3209,-7.6628796 -3.0624,-9.3922796 -3.39339,-1.73284998 -7.49533,-0.32012 -9.18697,3.13076 L 88.07113,59.869599 c -1.69242,3.45882 -0.32088,7.66262 3.06241,9.39202 0.98337,0.50267 2.02884,0.73812 3.05568,0.73812 z"
       id="path3"
       style="fill:#00ff00;stroke-width:6.92288"
       sodipodi:nodetypes="sssccsss" />
    <ellipse
       style="fill:#00ff00;stroke-width:5.13597"
       id="path2"
       cx="74.408813"
       cy="62.381447"
       rx="7.4520903"
       ry="7.6184187" />
    <ellipse
       style="fill:#00ff00;stroke-width:5.13597"
       id="path2-5"
       cx="54.019016"
       cy="62.381447"
       rx="7.4520903"
       ry="7.6184187" />
  </g>
</svg>
