<?xml version="1.0" encoding="UTF-8" standalone="no"?>
<!-- Created with Inkscape (http://www.inkscape.org/) -->

<svg
   width="437.5mm"
   height="175mm"
   viewBox="0 0 437.5 175"
   version="1.1"
   id="svg1"
   inkscape:version="1.3 (0e150ed6c4, 2023-07-21)"
   sodipodi:docname="codesysvg.svg"
   xmlns:inkscape="http://www.inkscape.org/namespaces/inkscape"
   xmlns:sodipodi="http://sodipodi.sourceforge.net/DTD/sodipodi-0.dtd"
   xmlns="http://www.w3.org/2000/svg"
   xmlns:svg="http://www.w3.org/2000/svg">
  <sodipodi:namedview
     id="namedview1"
     pagecolor="#ffffff"
     bordercolor="#000000"
     borderopacity="0.25"
     inkscape:showpageshadow="2"
     inkscape:pageopacity="0.0"
     inkscape:pagecheckerboard="0"
     inkscape:deskcolor="#d1d1d1"
     inkscape:document-units="mm"
     inkscape:zoom="0.1767767"
     inkscape:cx="1040.8612"
     inkscape:cy="161.22035"
     inkscape:window-width="1920"
     inkscape:window-height="1009"
     inkscape:window-x="1912"
     inkscape:window-y="-8"
     inkscape:window-maximized="1"
     inkscape:current-layer="layer1" />
  <defs
     id="defs1" />
  <g
     inkscape:label="Layer 1"
     inkscape:groupmode="layer"
     id="layer1">
    <path
       d="m 339.81146,169.87291 c 3.34473,3.41938 7.72264,5.12576 12.1025,5.12576 4.37987,0 8.7591,-1.70638 12.10255,-5.12576 l 68.46883,-69.997033 c 6.68621,-6.835476 6.68621,-17.90915 0,-24.745301 L 364.01651,5.1335487 c -6.6869,-6.8354753 -17.5188,-6.8354753 -24.20505,0 -6.68626,6.8354753 -6.68626,17.9098263 0,24.7452993 l 56.3663,57.624403 -56.3663,57.625029 c -6.68626,6.83548 -6.68626,17.90914 0,24.74463 z"
       id="path2-7"
       style="fill:#00ff00;stroke-width:17.3072" />
    <path
       d="M 97.688557,5.1335487 C 94.343816,1.7141736 89.965895,0.00777351 85.58668,0.00777351 c -4.379861,0 -8.759725,1.70640009 -12.102523,5.12577519 L 5.0146842,75.130576 c -6.6862456,6.836151 -6.6862456,17.909825 0,24.745301 L 73.484157,169.87291 c 6.686245,6.83611 17.518153,6.83611 24.2044,0 6.686893,-6.83549 6.686893,-17.90915 0,-24.74463 L 41.322253,87.503251 97.688557,29.878848 c 6.686893,-6.835473 6.686893,-17.909824 0,-24.7452993 z"
       id="path2-7-5"
       style="fill:#00ff00;stroke-width:17.3072" />
    <path
       d="m 235.47306,175 c 6.28192,0 12.32831,-3.53845 15.32884,-9.67217 L 319.27072,25.333098 C 323.50181,16.686075 320.07298,6.1758988 311.61473,1.8523986 303.13125,-2.4797265 292.87639,1.0520985 288.6473,9.679299 L 220.17785,149.67401 c -4.23106,8.64704 -0.80221,19.15655 7.65602,23.48003 2.45842,1.25669 5.07211,1.84531 7.63919,1.84531 z"
       id="path3"
       style="fill:#00ff00;stroke-width:17.3072"
       sodipodi:nodetypes="sssccsss" />
    <ellipse
       style="fill:#00ff00;stroke-width:12.8401"
       id="path2"
       cx="186.02205"
       cy="155.95361"
       rx="18.63023"
       ry="19.046047" />
    <ellipse
       style="fill:#00ff00;stroke-width:12.8401"
       id="path2-5"
       cx="135.04755"
       cy="155.95361"
       rx="18.63023"
       ry="19.046047" />
  </g>
</svg>
